# xmcd
#
# Track frame offsets:
#	150
#	15827
#	30796
#	45803
#	59750
#	74435
#	87099
#	100816
#	119198
#	131123
#	147525
#	165344
#	181149
#	197328
#	213175
#	229255
#	245457
#	259979
#	274333
#	290508
#	304587
#	319277
#
# Disc length: 4461 seconds
#
# Revision: 0
# Processed by: cddbd v1.4PL0 Copyright (c) Steve Scherf et al.
# Submitted via: dBpowerAMP V4.0
#
DISCID=3a116b16
DTITLE=The Drifters - The Drifters Collection
DYEAR=1900
DGENRE=Soul
TTITLE0=Like Sister And Brother
TTITLE1=every night
TTITLE2=More Than A number 
TTITLE3=Down On The Beach Tonight
TTITLE4=Sweet Caroline
TTITLE5=Hello Happiness Goodbye Loneliness
TTITLE6=There Goes My First Love
TTITLE7=You Got Your Troubles 
TTITLE8=Another Lonely Weekend
TTITLE9=Goodbye Angelina
TTITLE10=Please Help Me Down
TTITLE11=Can I Take You Home Little Girl
TTITLE12=Kissing In The Back Row
TTITLE13=If It Feels Good Do It
TTITLE14=Summer In The City
TTITLE15=Feeling Sad
TTITLE16=Do You Have To Go Now
TTITLE17=Love Games
TTITLE18=Midnight Cowboy
TTITLE19=The Song We Used To Sing
TTITLE20=I'll Get To Know You Along The WAY
TTITLE21=Every Nights A Saturday Night With You
EXTD=
EXTT0=
EXTT1=
EXTT2=
EXTT3=
EXTT4=
EXTT5=
EXTT6=
EXTT7=
EXTT8=
EXTT9=
EXTT10=
EXTT11=
EXTT12=
EXTT13=
EXTT14=
EXTT15=
EXTT16=
EXTT17=
EXTT18=
EXTT19=
EXTT20=
EXTT21=
PLAYORDER=
